<svg width="189" height="335" viewBox="0 0 189 335" fill="none" xmlns="http://www.w3.org/2000/svg">
<g filter="url(#filter0_d_73_6519)">
<circle cx="76.6963" cy="257.876" r="68" transform="rotate(7.7829 76.6963 257.876)" fill="#2E3234"/>
<rect x="37.2383" y="202.513" width="301.921" height="136.379" transform="rotate(-37.2171 37.2383 202.513)" fill="#2E3234"/>
<mask id="mask0_73_6519" style="mask-type:alpha" maskUnits="userSpaceOnUse" x="27" y="0" width="166" height="317">
<path d="M110 317L168.5 274.5L193 0H74L63.5 52L34.5 112L27 204L55 317H110Z" fill="#D9D9D9"/>
</mask>
<g mask="url(#mask0_73_6519)">
<g filter="url(#filter1_f_73_6519)">
<path d="M120.943 312.182C115.722 312.182 112.911 311.093 112.348 308.862C111.304 304.676 111.974 301.525 112.009 301.391C112.009 301.391 112.268 299.678 113.723 296.554C114.187 295.563 114.303 294.43 114.053 293.287C114.009 293.073 113.946 292.841 113.875 292.6C113.518 291.306 112.973 289.352 114.258 287.326C115.669 285.112 112.938 260.363 109.644 238.211C109.519 237.747 106.27 224.618 106.61 214.533C106.86 207.036 103.655 188.463 102.129 180.082C100.594 188.454 97.399 207.027 97.6489 214.533C97.988 224.618 94.7393 237.747 94.5965 238.3C91.321 260.372 88.5899 285.112 90.0001 287.334C91.2853 289.352 90.7409 291.315 90.3839 292.609C90.3125 292.85 90.25 293.082 90.2054 293.296C89.9555 294.439 90.0715 295.563 90.5356 296.563C91.9904 299.687 92.2492 301.4 92.2581 301.472C92.276 301.534 92.9543 304.685 91.9011 308.871C91.3388 311.111 88.5275 312.191 83.3063 312.191C80.2807 312.191 77.1391 311.825 75.4522 311.629L74.8096 311.557C73.1853 311.379 71.9357 310.165 71.4538 308.308C70.9004 306.184 71.5609 303.953 73.0514 302.891C75.1755 301.374 77.0409 297.946 77.0409 295.554C77.0409 292.957 79.3346 287.754 79.8344 286.647C79.6559 283.015 77.7549 244.449 79.0669 236.283C80.3164 228.456 80.7002 220.227 80.7359 219.334C80.477 217.496 76.0234 186.338 75.7021 174.629C75.3897 163.249 81.191 146.122 83.3777 139.669L83.815 138.366C85.4662 133.404 83.9757 113.403 82.5209 110.484C81.9497 109.342 81.4677 108.057 81.0839 106.664C81.0215 106.432 80.8251 106.414 80.7626 106.414C80.6377 106.414 80.5484 106.477 80.486 106.593C78.4153 110.788 75.0149 118.606 75.4611 123.782C76.1394 131.556 73.212 144.667 73.0871 145.221C73.0246 145.426 68.7406 160.072 68.7406 170.898C68.7406 181.144 66.1434 187.766 62.136 187.766C61.6987 187.766 61.2614 187.686 60.824 187.525C56.5043 185.955 56.5132 178.306 57.2361 175.387C57.7092 173.504 59.8423 162.821 61.065 156.618C61.5648 154.11 61.7879 151.656 61.7344 149.308C61.5113 139.08 64.046 124.318 64.2602 123.104C64.287 116.446 68.1247 98.6584 69.2939 93.348C69.5081 92.3841 69.6063 91.4916 69.6063 90.6259C69.4813 73.4897 79.647 70.9996 80.0754 70.9014C83.3241 70.3481 92.1957 68.4024 94.7929 66.064C97.1937 63.9042 96.8278 60.4413 96.6225 59.281C91.7048 56.8534 89.4557 51.4359 88.7417 49.3206C88.6703 49.3206 88.5899 49.3295 88.5007 49.3295C87.3493 49.3295 85.7696 48.6602 84.7878 45.4828C84.2702 43.796 84.3594 42.4662 85.0467 41.5379C85.5822 40.815 86.3497 40.5026 86.9745 40.3777C85.5376 29.6319 89.5717 24.2412 93.2756 21.6083C95.846 19.7786 98.9073 18.8058 102.111 18.8058C105.316 18.8058 108.368 19.7786 110.947 21.6083C114.651 24.2501 118.676 29.6319 117.248 40.3777C117.873 40.5026 118.641 40.815 119.176 41.5379C119.863 42.4751 119.953 43.8049 119.435 45.4828C118.453 48.6602 116.873 49.3295 115.722 49.3295C115.642 49.3295 115.562 49.3295 115.481 49.3206C114.767 51.4269 112.518 56.8534 107.6 59.281C107.395 60.4323 107.029 63.9042 109.43 66.064C112.027 68.4024 120.908 70.3392 124.103 70.8925C124.585 70.9996 134.75 73.4897 134.617 90.6259C134.617 91.4827 134.715 92.3752 134.929 93.348C136.107 98.6495 139.936 116.428 139.963 123.104C140.177 124.309 142.712 139.08 142.488 149.308C142.435 151.647 142.667 154.11 143.158 156.618C144.389 162.821 146.523 173.504 146.987 175.387C147.719 178.315 147.727 185.955 143.399 187.525C142.961 187.686 142.524 187.766 142.087 187.766C138.071 187.766 135.482 181.144 135.482 170.898C135.482 160.072 131.198 145.426 131.154 145.274C131.011 144.667 128.092 131.556 128.771 123.774C129.217 118.597 125.816 110.779 123.746 106.584C123.692 106.468 123.594 106.405 123.469 106.405C123.407 106.405 123.21 106.423 123.148 106.655C122.773 108.048 122.291 109.333 121.72 110.475C120.265 113.394 118.775 133.395 120.426 138.357L120.863 139.66C123.05 146.113 128.851 163.24 128.539 174.62C128.217 186.329 123.764 217.496 123.505 219.325C123.541 220.218 123.924 228.447 125.174 236.274C126.477 244.449 124.585 283.015 124.406 286.638C124.906 287.745 127.2 292.948 127.2 295.546C127.2 297.937 129.065 301.365 131.198 302.882C132.689 303.953 133.349 306.175 132.796 308.299C132.314 310.156 131.055 311.37 129.44 311.548L128.797 311.62C127.111 311.816 123.969 312.182 120.943 312.182Z" fill="#C8C2DA"/>
<path d="M102.121 19.785C105.048 19.785 107.967 20.6686 110.439 22.4268C114.384 25.2382 117.918 30.7004 116.231 41.2855C116.231 41.2855 116.294 41.2855 116.41 41.2855C117.133 41.2855 119.748 41.5354 118.588 45.3196C117.758 48.0239 116.535 48.5416 115.732 48.5416C115.232 48.5416 114.893 48.3452 114.893 48.3452C114.893 48.3452 112.876 56.0744 106.824 58.7608C106.824 58.7608 105.477 63.8035 108.842 66.8291C112.197 69.8547 123.961 71.8717 123.961 71.8717C123.961 71.8717 133.859 74.103 133.734 90.7215C133.734 91.7032 133.85 92.6761 134.064 93.64C135.269 99.0664 139.08 116.774 139.08 123.28C139.08 123.28 141.838 138.729 141.605 149.386C141.552 151.903 141.802 154.411 142.293 156.883C143.515 163.059 145.657 173.796 146.13 175.697C146.8 178.384 146.8 185.443 143.105 186.782C142.766 186.907 142.427 186.969 142.105 186.969C138.883 186.969 136.393 181.061 136.393 170.994C136.393 159.909 132.029 145.12 132.029 145.12C132.029 145.12 129.003 131.679 129.673 123.95C130.137 118.568 126.692 110.615 124.559 106.287C124.335 105.832 123.907 105.609 123.488 105.609C122.979 105.609 122.47 105.921 122.309 106.51C122.006 107.626 121.569 108.911 120.944 110.169C119.266 113.525 117.918 133.687 119.596 138.729C121.274 143.772 127.995 162.586 127.665 174.68C127.334 186.773 122.622 219.367 122.622 219.367C122.622 219.367 122.961 228.105 124.309 236.504C125.647 244.902 123.514 286.904 123.514 286.904C123.514 286.904 126.317 292.955 126.317 295.641C126.317 298.328 128.334 302.023 130.681 303.709C133.037 305.387 132.359 310.43 129.333 310.769C127.879 310.93 124.335 311.403 120.935 311.403C117.249 311.403 113.732 310.849 113.206 308.752C112.197 304.718 112.867 301.692 112.867 301.692C112.867 301.692 113.099 300.077 114.518 297.033C115.071 295.838 115.196 294.49 114.911 293.205C114.625 291.875 113.706 289.947 115 287.912C117.356 284.217 110.519 238.182 110.519 238.182C110.519 238.182 107.164 224.74 107.494 214.664C107.771 206.301 103.888 184.774 102.558 177.67C102.514 177.429 102.317 177.304 102.121 177.304C101.925 177.304 101.728 177.429 101.684 177.67C100.354 184.774 96.4714 206.31 96.7481 214.664C97.0872 224.74 93.7225 238.182 93.7225 238.182C93.7225 238.182 86.8858 284.217 89.2421 287.912C90.5362 289.947 89.6169 291.875 89.3313 293.205C89.0546 294.49 89.1707 295.838 89.724 297.033C91.1431 300.077 91.3752 301.692 91.3752 301.692C91.3752 301.692 92.0445 304.718 91.036 308.752C90.5094 310.849 86.9929 311.403 83.3069 311.403C79.9064 311.403 76.3632 310.93 74.9084 310.769C71.8828 310.43 71.2134 305.396 73.5607 303.709C75.9169 302.031 77.9251 298.336 77.9251 295.641C77.9251 292.946 80.7275 286.904 80.7275 286.904C80.7275 286.904 78.5945 244.902 79.9332 236.504C81.272 228.105 81.6201 219.367 81.6201 219.367C81.6201 219.367 76.9165 186.773 76.5774 174.68C76.2382 162.586 82.9588 143.763 84.6457 138.729C86.3236 133.687 84.9848 113.525 83.298 110.169C82.6732 108.92 82.2359 107.634 81.9324 106.51C81.7718 105.921 81.263 105.609 80.7543 105.609C80.3259 105.609 79.9064 105.823 79.6833 106.287C77.5502 110.615 74.1051 118.568 74.5692 123.95C75.2386 131.679 72.213 145.12 72.213 145.12C72.213 145.12 67.8487 159.9 67.8487 170.994C67.8487 181.061 65.3586 186.969 62.1366 186.969C61.8064 186.969 61.4762 186.907 61.137 186.782C57.442 185.434 57.442 178.384 58.1114 175.697C58.5844 173.805 60.7265 163.059 61.9492 156.883C62.4401 154.411 62.69 151.903 62.6364 149.386C62.4044 138.738 65.1622 123.28 65.1622 123.28C65.1622 116.774 68.9732 99.0664 70.1781 93.64C70.3923 92.6761 70.5173 91.7032 70.5083 90.7215C70.3834 74.1119 80.2813 71.8717 80.2813 71.8717C80.2813 71.8717 92.0445 69.8547 95.4004 66.8291C98.7562 63.8035 97.4174 58.7608 97.4174 58.7608C91.3662 56.0744 89.3492 48.3452 89.3492 48.3452C89.3492 48.3452 89.01 48.5416 88.5102 48.5416C87.707 48.5416 86.4842 48.0239 85.6542 45.3196C84.485 41.5354 87.109 41.2855 87.8319 41.2855C87.939 41.2855 88.0104 41.2855 88.0104 41.2855C86.3325 30.7004 89.8579 25.2382 93.8028 22.4268C96.2661 20.6686 99.1935 19.785 102.121 19.785ZM102.121 18C98.7294 18 95.4985 19.0264 92.7675 20.972C88.9565 23.6853 84.8063 29.1474 86.0112 39.8307C85.4221 40.0628 84.8242 40.4555 84.3422 41.0981C83.4765 42.2762 83.3426 43.8649 83.9495 45.8373C85.0294 49.3359 86.8858 50.166 88.1175 50.2909C89.0279 52.7364 91.3127 57.5113 95.8198 59.9478C95.9805 61.2152 96.043 63.8302 94.2044 65.4814C92.0356 67.427 84.3244 69.3459 79.9778 70.0867L79.8886 70.1046C79.4245 70.2117 68.5894 72.8624 68.7233 90.7036C68.7233 91.498 68.6341 92.3191 68.4377 93.2205C66.9294 100.021 63.4397 116.47 63.3772 123.093C63.0738 124.824 60.6283 139.14 60.8514 149.395C60.905 151.671 60.6818 154.063 60.1999 156.508C58.1114 167.049 56.7191 173.876 56.3799 175.233C55.6927 177.982 55.3803 186.559 60.5301 188.433C61.0656 188.63 61.61 188.728 62.1455 188.728C66.7687 188.728 69.6426 181.918 69.6426 170.967C69.6426 160.016 73.8909 145.745 73.9356 145.602L73.9623 145.486C74.0873 144.923 77.0415 131.688 76.3543 123.771C76.0597 120.38 77.6216 114.819 80.6472 108.375C80.9596 109.286 81.3166 110.151 81.7093 110.946C83.0481 113.623 84.5386 133.392 82.9588 138.14C82.8339 138.506 82.6911 138.944 82.5215 139.443C80.3259 145.932 74.48 163.175 74.8013 174.715C75.1315 186.461 79.4334 216.645 79.835 219.448C79.7815 220.671 79.3888 228.632 78.1839 236.209C76.8898 244.331 78.7016 281.816 78.9336 286.547C78.2464 288.073 76.149 292.973 76.149 295.623C76.149 297.73 74.4264 300.88 72.5254 302.237C70.7404 303.513 69.9371 306.137 70.5887 308.609C71.1599 310.805 72.7396 312.304 74.712 312.518L75.3457 312.59C77.0504 312.786 80.2277 313.161 83.3069 313.161C85.3954 313.161 91.7679 313.161 92.7675 309.163C93.7939 305.057 93.2316 301.862 93.1245 301.353C93.062 300.96 92.7139 299.22 91.3395 296.266C90.9557 295.454 90.8664 294.517 91.0717 293.571C91.1163 293.374 91.1788 293.16 91.2413 292.937C91.6161 291.589 92.2409 289.331 90.7772 286.993C89.6437 284.128 92.2677 260.155 95.4807 238.521C95.7931 237.244 98.8633 224.49 98.5331 214.593C98.3278 208.407 100.506 194.538 102.121 185.256C103.736 194.538 105.923 208.407 105.709 214.593C105.379 224.49 108.449 237.235 108.761 238.521C111.974 260.146 114.598 284.119 113.465 286.993C112.01 289.331 112.626 291.58 113.001 292.937C113.063 293.16 113.126 293.374 113.17 293.571C113.375 294.517 113.286 295.454 112.902 296.266C111.528 299.22 111.18 300.96 111.117 301.353C111.019 301.862 110.448 305.057 111.474 309.163C112.474 313.161 118.847 313.161 120.935 313.161C124.014 313.161 127.191 312.786 128.896 312.59L129.53 312.518C131.502 312.295 133.082 310.805 133.653 308.609C134.296 306.137 133.501 303.513 131.716 302.237C129.824 300.88 128.093 297.73 128.093 295.623C128.093 292.964 125.996 288.073 125.308 286.547C125.54 281.816 127.352 244.331 126.058 236.209C124.844 228.623 124.46 220.662 124.407 219.448C124.808 216.645 129.11 186.47 129.441 174.715C129.762 163.175 123.925 145.941 121.72 139.443C121.551 138.944 121.408 138.506 121.283 138.14C119.694 133.383 121.194 113.623 122.533 110.946C122.934 110.151 123.291 109.286 123.595 108.375C126.629 114.819 128.191 120.371 127.888 123.771C127.2 131.688 130.155 144.923 130.28 145.486L130.306 145.602C130.351 145.745 134.599 160.275 134.599 170.967C134.599 181.659 137.473 188.728 142.096 188.728C142.632 188.728 143.176 188.63 143.712 188.433C148.853 186.559 148.54 177.982 147.862 175.233C147.523 173.876 146.13 167.058 144.042 156.508C143.56 154.063 143.337 151.671 143.39 149.395C143.614 139.131 141.168 124.824 140.865 123.093C140.811 116.47 137.313 100.03 135.804 93.2205C135.608 92.3191 135.51 91.498 135.519 90.7036C135.652 72.8624 124.817 70.2027 124.353 70.1046L124.264 70.0867C119.909 69.337 112.197 67.427 110.037 65.4814C108.208 63.8302 108.261 61.2241 108.422 59.9478C112.929 57.5113 115.205 52.7364 116.124 50.2909C117.356 50.157 119.221 49.327 120.292 45.8373C120.899 43.8649 120.765 42.2673 119.9 41.0981C119.427 40.4555 118.82 40.0628 118.231 39.8307C119.436 29.1385 115.285 23.6853 111.474 20.972C108.752 19.0264 105.512 18 102.121 18Z" fill="#C8C2DA"/>
</g>
<path d="M120.943 312.182C115.722 312.182 112.911 311.093 112.348 308.862C111.304 304.676 111.974 301.525 112.009 301.391C112.009 301.391 112.268 299.678 113.723 296.554C114.187 295.563 114.303 294.43 114.053 293.287C114.009 293.073 113.946 292.841 113.875 292.6C113.518 291.306 112.973 289.352 114.258 287.326C115.669 285.112 112.938 260.363 109.644 238.211C109.519 237.747 106.27 224.618 106.61 214.533C106.86 207.036 103.655 188.463 102.129 180.082C100.594 188.454 97.399 207.027 97.6489 214.533C97.988 224.618 94.7393 237.747 94.5965 238.3C91.321 260.372 88.5899 285.112 90.0001 287.334C91.2853 289.352 90.7409 291.315 90.3839 292.609C90.3125 292.85 90.25 293.082 90.2054 293.296C89.9555 294.439 90.0715 295.563 90.5356 296.563C91.9904 299.687 92.2492 301.4 92.2581 301.472C92.276 301.534 92.9543 304.685 91.9011 308.871C91.3388 311.111 88.5275 312.191 83.3063 312.191C80.2807 312.191 77.1391 311.825 75.4522 311.629L74.8096 311.557C73.1853 311.379 71.9357 310.165 71.4538 308.308C70.9004 306.184 71.5609 303.953 73.0514 302.891C75.1755 301.374 77.0409 297.946 77.0409 295.554C77.0409 292.957 79.3346 287.754 79.8344 286.647C79.6559 283.015 77.7549 244.449 79.0669 236.283C80.3164 228.456 80.7002 220.227 80.7359 219.334C80.477 217.496 76.0234 186.338 75.7021 174.629C75.3897 163.249 81.191 146.122 83.3777 139.669L83.815 138.366C85.4662 133.404 83.9757 113.403 82.5209 110.484C81.9497 109.342 81.4677 108.057 81.0839 106.664C81.0215 106.432 80.8251 106.414 80.7626 106.414C80.6377 106.414 80.5484 106.477 80.486 106.593C78.4153 110.788 75.0149 118.606 75.4611 123.782C76.1394 131.556 73.212 144.667 73.0871 145.221C73.0246 145.426 68.7406 160.072 68.7406 170.898C68.7406 181.144 66.1434 187.766 62.136 187.766C61.6987 187.766 61.2614 187.686 60.824 187.525C56.5043 185.955 56.5132 178.306 57.2361 175.387C57.7092 173.504 59.8423 162.821 61.065 156.618C61.5648 154.11 61.7879 151.656 61.7344 149.308C61.5113 139.08 64.046 124.318 64.2602 123.104C64.287 116.446 68.1247 98.6584 69.2939 93.348C69.5081 92.3841 69.6063 91.4916 69.6063 90.6259C69.4813 73.4897 79.647 70.9996 80.0754 70.9014C83.3241 70.3481 92.1957 68.4024 94.7929 66.064C97.1937 63.9042 96.8278 60.4413 96.6225 59.281C91.7048 56.8534 89.4557 51.4359 88.7417 49.3206C88.6703 49.3206 88.5899 49.3295 88.5007 49.3295C87.3493 49.3295 85.7696 48.6602 84.7878 45.4828C84.2702 43.796 84.3594 42.4662 85.0467 41.5379C85.5822 40.815 86.3497 40.5026 86.9745 40.3777C85.5376 29.6319 89.5717 24.2412 93.2756 21.6083C95.846 19.7786 98.9073 18.8058 102.111 18.8058C105.316 18.8058 108.368 19.7786 110.947 21.6083C114.651 24.2501 118.676 29.6319 117.248 40.3777C117.873 40.5026 118.641 40.815 119.176 41.5379C119.863 42.4751 119.953 43.8049 119.435 45.4828C118.453 48.6602 116.873 49.3295 115.722 49.3295C115.642 49.3295 115.562 49.3295 115.481 49.3206C114.767 51.4269 112.518 56.8534 107.6 59.281C107.395 60.4323 107.029 63.9042 109.43 66.064C112.027 68.4024 120.908 70.3392 124.103 70.8925C124.585 70.9996 134.75 73.4897 134.617 90.6259C134.617 91.4827 134.715 92.3752 134.929 93.348C136.107 98.6495 139.936 116.428 139.963 123.104C140.177 124.309 142.712 139.08 142.488 149.308C142.435 151.647 142.667 154.11 143.158 156.618C144.389 162.821 146.523 173.504 146.987 175.387C147.719 178.315 147.727 185.955 143.399 187.525C142.961 187.686 142.524 187.766 142.087 187.766C138.071 187.766 135.482 181.144 135.482 170.898C135.482 160.072 131.198 145.426 131.154 145.274C131.011 144.667 128.092 131.556 128.771 123.774C129.217 118.597 125.816 110.779 123.746 106.584C123.692 106.468 123.594 106.405 123.469 106.405C123.407 106.405 123.21 106.423 123.148 106.655C122.773 108.048 122.291 109.333 121.72 110.475C120.265 113.394 118.775 133.395 120.426 138.357L120.863 139.66C123.05 146.113 128.851 163.24 128.539 174.62C128.217 186.329 123.764 217.496 123.505 219.325C123.541 220.218 123.924 228.447 125.174 236.274C126.477 244.449 124.585 283.015 124.406 286.638C124.906 287.745 127.2 292.948 127.2 295.546C127.2 297.937 129.065 301.365 131.198 302.882C132.689 303.953 133.349 306.175 132.796 308.299C132.314 310.156 131.055 311.37 129.44 311.548L128.797 311.62C127.111 311.816 123.969 312.182 120.943 312.182Z" fill="#C8C2DA"/>
<path d="M102.121 19.785C105.048 19.785 107.967 20.6686 110.439 22.4268C114.384 25.2382 117.918 30.7004 116.231 41.2855C116.231 41.2855 116.294 41.2855 116.41 41.2855C117.133 41.2855 119.748 41.5354 118.588 45.3196C117.758 48.0239 116.535 48.5416 115.732 48.5416C115.232 48.5416 114.893 48.3452 114.893 48.3452C114.893 48.3452 112.876 56.0744 106.824 58.7608C106.824 58.7608 105.477 63.8035 108.842 66.8291C112.197 69.8547 123.961 71.8717 123.961 71.8717C123.961 71.8717 133.859 74.103 133.734 90.7215C133.734 91.7032 133.85 92.6761 134.064 93.64C135.269 99.0664 139.08 116.774 139.08 123.28C139.08 123.28 141.838 138.729 141.605 149.386C141.552 151.903 141.802 154.411 142.293 156.883C143.515 163.059 145.657 173.796 146.13 175.697C146.8 178.384 146.8 185.443 143.105 186.782C142.766 186.907 142.427 186.969 142.105 186.969C138.883 186.969 136.393 181.061 136.393 170.994C136.393 159.909 132.029 145.12 132.029 145.12C132.029 145.12 129.003 131.679 129.673 123.95C130.137 118.568 126.692 110.615 124.559 106.287C124.335 105.832 123.907 105.609 123.488 105.609C122.979 105.609 122.47 105.921 122.309 106.51C122.006 107.626 121.569 108.911 120.944 110.169C119.266 113.525 117.918 133.687 119.596 138.729C121.274 143.772 127.995 162.586 127.665 174.68C127.334 186.773 122.622 219.367 122.622 219.367C122.622 219.367 122.961 228.105 124.309 236.504C125.647 244.902 123.514 286.904 123.514 286.904C123.514 286.904 126.317 292.955 126.317 295.641C126.317 298.328 128.334 302.023 130.681 303.709C133.037 305.387 132.359 310.43 129.333 310.769C127.879 310.93 124.335 311.403 120.935 311.403C117.249 311.403 113.732 310.849 113.206 308.752C112.197 304.718 112.867 301.692 112.867 301.692C112.867 301.692 113.099 300.077 114.518 297.033C115.071 295.838 115.196 294.49 114.911 293.205C114.625 291.875 113.706 289.947 115 287.912C117.356 284.217 110.519 238.182 110.519 238.182C110.519 238.182 107.164 224.74 107.494 214.664C107.771 206.301 103.888 184.774 102.558 177.67C102.514 177.429 102.317 177.304 102.121 177.304C101.925 177.304 101.728 177.429 101.684 177.67C100.354 184.774 96.4714 206.31 96.7481 214.664C97.0872 224.74 93.7225 238.182 93.7225 238.182C93.7225 238.182 86.8858 284.217 89.2421 287.912C90.5362 289.947 89.6169 291.875 89.3313 293.205C89.0546 294.49 89.1707 295.838 89.724 297.033C91.1431 300.077 91.3752 301.692 91.3752 301.692C91.3752 301.692 92.0445 304.718 91.036 308.752C90.5094 310.849 86.9929 311.403 83.3069 311.403C79.9064 311.403 76.3632 310.93 74.9084 310.769C71.8828 310.43 71.2134 305.396 73.5607 303.709C75.9169 302.031 77.9251 298.336 77.9251 295.641C77.9251 292.946 80.7275 286.904 80.7275 286.904C80.7275 286.904 78.5945 244.902 79.9332 236.504C81.272 228.105 81.6201 219.367 81.6201 219.367C81.6201 219.367 76.9165 186.773 76.5774 174.68C76.2382 162.586 82.9588 143.763 84.6457 138.729C86.3236 133.687 84.9848 113.525 83.298 110.169C82.6732 108.92 82.2359 107.634 81.9324 106.51C81.7718 105.921 81.263 105.609 80.7543 105.609C80.3259 105.609 79.9064 105.823 79.6833 106.287C77.5502 110.615 74.1051 118.568 74.5692 123.95C75.2386 131.679 72.213 145.12 72.213 145.12C72.213 145.12 67.8487 159.9 67.8487 170.994C67.8487 181.061 65.3586 186.969 62.1366 186.969C61.8064 186.969 61.4762 186.907 61.137 186.782C57.442 185.434 57.442 178.384 58.1114 175.697C58.5844 173.805 60.7265 163.059 61.9492 156.883C62.4401 154.411 62.69 151.903 62.6364 149.386C62.4044 138.738 65.1622 123.28 65.1622 123.28C65.1622 116.774 68.9732 99.0664 70.1781 93.64C70.3923 92.6761 70.5173 91.7032 70.5083 90.7215C70.3834 74.1119 80.2813 71.8717 80.2813 71.8717C80.2813 71.8717 92.0445 69.8547 95.4004 66.8291C98.7562 63.8035 97.4174 58.7608 97.4174 58.7608C91.3662 56.0744 89.3492 48.3452 89.3492 48.3452C89.3492 48.3452 89.01 48.5416 88.5102 48.5416C87.707 48.5416 86.4842 48.0239 85.6542 45.3196C84.485 41.5354 87.109 41.2855 87.8319 41.2855C87.939 41.2855 88.0104 41.2855 88.0104 41.2855C86.3325 30.7004 89.8579 25.2382 93.8028 22.4268C96.2661 20.6686 99.1935 19.785 102.121 19.785ZM102.121 18C98.7294 18 95.4985 19.0264 92.7675 20.972C88.9565 23.6853 84.8063 29.1474 86.0112 39.8307C85.4221 40.0628 84.8242 40.4555 84.3422 41.0981C83.4765 42.2762 83.3426 43.8649 83.9495 45.8373C85.0294 49.3359 86.8858 50.166 88.1175 50.2909C89.0279 52.7364 91.3127 57.5113 95.8198 59.9478C95.9805 61.2152 96.043 63.8302 94.2044 65.4814C92.0356 67.427 84.3244 69.3459 79.9778 70.0867L79.8886 70.1046C79.4245 70.2117 68.5894 72.8624 68.7233 90.7036C68.7233 91.498 68.6341 92.3191 68.4377 93.2205C66.9294 100.021 63.4397 116.47 63.3772 123.093C63.0738 124.824 60.6283 139.14 60.8514 149.395C60.905 151.671 60.6818 154.063 60.1999 156.508C58.1114 167.049 56.7191 173.876 56.3799 175.233C55.6927 177.982 55.3803 186.559 60.5301 188.433C61.0656 188.63 61.61 188.728 62.1455 188.728C66.7687 188.728 69.6426 181.918 69.6426 170.967C69.6426 160.016 73.8909 145.745 73.9356 145.602L73.9623 145.486C74.0873 144.923 77.0415 131.688 76.3543 123.771C76.0597 120.38 77.6216 114.819 80.6472 108.375C80.9596 109.286 81.3166 110.151 81.7093 110.946C83.0481 113.623 84.5386 133.392 82.9588 138.14C82.8339 138.506 82.6911 138.944 82.5215 139.443C80.3259 145.932 74.48 163.175 74.8013 174.715C75.1315 186.461 79.4334 216.645 79.835 219.448C79.7815 220.671 79.3888 228.632 78.1839 236.209C76.8898 244.331 78.7016 281.816 78.9336 286.547C78.2464 288.073 76.149 292.973 76.149 295.623C76.149 297.73 74.4264 300.88 72.5254 302.237C70.7404 303.513 69.9371 306.137 70.5887 308.609C71.1599 310.805 72.7396 312.304 74.712 312.518L75.3457 312.59C77.0504 312.786 80.2277 313.161 83.3069 313.161C85.3954 313.161 91.7679 313.161 92.7675 309.163C93.7939 305.057 93.2316 301.862 93.1245 301.353C93.062 300.96 92.7139 299.22 91.3395 296.266C90.9557 295.454 90.8664 294.517 91.0717 293.571C91.1163 293.374 91.1788 293.16 91.2413 292.937C91.6161 291.589 92.2409 289.331 90.7772 286.993C89.6437 284.128 92.2677 260.155 95.4807 238.521C95.7931 237.244 98.8633 224.49 98.5331 214.593C98.3278 208.407 100.506 194.538 102.121 185.256C103.736 194.538 105.923 208.407 105.709 214.593C105.379 224.49 108.449 237.235 108.761 238.521C111.974 260.146 114.598 284.119 113.465 286.993C112.01 289.331 112.626 291.58 113.001 292.937C113.063 293.16 113.126 293.374 113.17 293.571C113.375 294.517 113.286 295.454 112.902 296.266C111.528 299.22 111.18 300.96 111.117 301.353C111.019 301.862 110.448 305.057 111.474 309.163C112.474 313.161 118.847 313.161 120.935 313.161C124.014 313.161 127.191 312.786 128.896 312.59L129.53 312.518C131.502 312.295 133.082 310.805 133.653 308.609C134.296 306.137 133.501 303.513 131.716 302.237C129.824 300.88 128.093 297.73 128.093 295.623C128.093 292.964 125.996 288.073 125.308 286.547C125.54 281.816 127.352 244.331 126.058 236.209C124.844 228.623 124.46 220.662 124.407 219.448C124.808 216.645 129.11 186.47 129.441 174.715C129.762 163.175 123.925 145.941 121.72 139.443C121.551 138.944 121.408 138.506 121.283 138.14C119.694 133.383 121.194 113.623 122.533 110.946C122.934 110.151 123.291 109.286 123.595 108.375C126.629 114.819 128.191 120.371 127.888 123.771C127.2 131.688 130.155 144.923 130.28 145.486L130.306 145.602C130.351 145.745 134.599 160.275 134.599 170.967C134.599 181.659 137.473 188.728 142.096 188.728C142.632 188.728 143.176 188.63 143.712 188.433C148.853 186.559 148.54 177.982 147.862 175.233C147.523 173.876 146.13 167.058 144.042 156.508C143.56 154.063 143.337 151.671 143.39 149.395C143.614 139.131 141.168 124.824 140.865 123.093C140.811 116.47 137.313 100.03 135.804 93.2205C135.608 92.3191 135.51 91.498 135.519 90.7036C135.652 72.8624 124.817 70.2027 124.353 70.1046L124.264 70.0867C119.909 69.337 112.197 67.427 110.037 65.4814C108.208 63.8302 108.261 61.2241 108.422 59.9478C112.929 57.5113 115.205 52.7364 116.124 50.2909C117.356 50.157 119.221 49.327 120.292 45.8373C120.899 43.8649 120.765 42.2673 119.9 41.0981C119.427 40.4555 118.82 40.0628 118.231 39.8307C119.436 29.1385 115.285 23.6853 111.474 20.972C108.752 19.0264 105.512 18 102.121 18Z" fill="#C8C2DA"/>
</g>
</g>
<defs>
<filter id="filter0_d_73_6519" x="4.68799" y="18" width="359.472" height="315.884" filterUnits="userSpaceOnUse" color-interpolation-filters="sRGB">
<feFlood flood-opacity="0" result="BackgroundImageFix"/>
<feColorMatrix in="SourceAlpha" type="matrix" values="0 0 0 0 0 0 0 0 0 0 0 0 0 0 0 0 0 0 127 0" result="hardAlpha"/>
<feOffset dy="4"/>
<feGaussianBlur stdDeviation="2"/>
<feComposite in2="hardAlpha" operator="out"/>
<feColorMatrix type="matrix" values="0 0 0 0 0 0 0 0 0 0 0 0 0 0 0 0 0 0 0.25 0"/>
<feBlend mode="normal" in2="BackgroundImageFix" result="effect1_dropShadow_73_6519"/>
<feBlend mode="normal" in="SourceGraphic" in2="effect1_dropShadow_73_6519" result="shape"/>
</filter>
<filter id="filter1_f_73_6519" x="51" y="13" width="102.236" height="305.161" filterUnits="userSpaceOnUse" color-interpolation-filters="sRGB">
<feFlood flood-opacity="0" result="BackgroundImageFix"/>
<feBlend mode="normal" in="SourceGraphic" in2="BackgroundImageFix" result="shape"/>
<feGaussianBlur stdDeviation="2.5" result="effect1_foregroundBlur_73_6519"/>
</filter>
</defs>
</svg>
