<svg width="48" height="19" viewBox="0 0 48 19" fill="none" xmlns="http://www.w3.org/2000/svg">
<g clip-path="url(#clip0_139_5045)">
<path d="M47.9949 13.2754H25.3198V15.3358H47.9949V13.2754Z" fill="#C89FFD"/>
<path d="M27.4896 11.3297V0H32.3929C33.4048 0 34.2812 0.16692 35.0167 0.495544C35.7521 0.824169 36.3155 1.29885 36.7172 1.90915C37.1188 2.52467 37.317 3.25494 37.317 4.11041C37.317 4.96588 37.1188 5.6805 36.7172 6.29602C36.3207 6.91154 35.7521 7.381 35.0167 7.70963C34.2812 8.03825 33.41 8.20517 32.3929 8.20517H28.9449L30.1082 7.0263V11.3297H27.4844H27.4896ZM30.1134 7.31841L28.9501 6.07172H32.252C33.0606 6.07172 33.6656 5.89959 34.0621 5.55531C34.4637 5.21104 34.6619 4.73115 34.6619 4.11563C34.6619 3.50011 34.4637 3.00456 34.0621 2.66029C33.6656 2.31602 33.0606 2.14388 32.252 2.14388H28.9501L30.1134 0.897196V7.32363V7.31841Z" fill="white"/>
<path d="M41.7767 9.22234H47.9424V11.3245H39.1738V0H47.7337V2.10215H41.7767V9.22234ZM41.5837 4.56423H47.0399V6.60378H41.5837V4.56423Z" fill="white"/>
<path d="M18.2726 18.2881V11.0531L18.8725 12.6389L13.8857 4.35547H16.6712L20.4895 10.7141H18.8881L22.7221 4.35547H25.2937L20.3122 12.6389L20.8964 11.0531V18.2881H18.2726Z" fill="white"/>
<path d="M0 11.3297V0H2.16996L6.995 7.99652H5.84742L10.5838 0H12.7381L12.7694 11.3297H10.3073L10.2917 3.77135H10.7455L6.95849 10.13H5.77961L1.90915 3.77135H2.45686V11.3297H0Z" fill="white"/>
</g>
<defs>
<clipPath id="clip0_139_5045">
<rect width="48" height="18.2882" fill="white"/>
</clipPath>
</defs>
</svg>
