<svg width="87" height="22" viewBox="0 0 87 22" fill="none" xmlns="http://www.w3.org/2000/svg">
<g clip-path="url(#clip0_139_6001)">
<path d="M54.5733 13.629V10.0335L55.1318 11.4767L51.3354 5.12646H53.8705L56.6127 9.72601H55.1443L57.8991 5.12646H60.2271L56.437 11.4767L56.9704 10.0335V13.629H54.5671H54.5733Z" fill="#9B5EFF"/>
<path d="M46.0205 13.6291V7.0404H43.4102V5.13281H51.0217V7.0404H48.4238V13.6291H46.0205Z" fill="#9B5EFF"/>
<path d="M86.8078 15.9697H30.4587V18.4483H86.8078V15.9697Z" fill="#9B5EFF"/>
<path d="M62.1471 13.6292V0H68.0456C69.2629 0 70.3171 0.200799 71.2019 0.596121C72.0867 0.991443 72.7644 1.56246 73.2475 2.29663C73.7307 3.03708 73.9692 3.91557 73.9692 4.94467C73.9692 5.97376 73.7307 6.83343 73.2475 7.57387C72.7706 8.31432 72.0867 8.87906 71.2019 9.27439C70.3171 9.66971 69.2692 9.87051 68.0456 9.87051H63.8979L65.2972 8.45237V13.6292H62.1409H62.1471ZM65.3034 8.80376L63.9041 7.30405H67.8762C68.8488 7.30405 69.5767 7.09698 70.0536 6.68283C70.5368 6.26868 70.7752 5.69139 70.7752 4.95094C70.7752 4.2105 70.5368 3.61438 70.0536 3.20023C69.5767 2.78608 68.8488 2.57901 67.8762 2.57901H63.9041L65.3034 1.07929V8.81004V8.80376Z" fill="#2E3235"/>
<path d="M79.3343 11.0941H86.7513V13.6229H76.2031V0H86.5003V2.52881H79.3343V11.0941ZM79.1022 5.49059H85.6658V7.9441H79.1022V5.49059Z" fill="#2E3235"/>
<path d="M21.9811 22.0002V13.2968L22.7027 15.2044L16.7039 5.23975H20.0547L24.648 12.8889H22.7215L27.3336 5.23975H30.4272L24.4346 15.2044L25.1374 13.2968V22.0002H21.9811Z" fill="#2E3235"/>
<path d="M0 13.6292V0H2.61038L8.41472 9.61951H7.03423L12.7319 0H15.3234L15.3611 13.6292H12.3993L12.3805 4.53679H12.9264L8.37079 12.186H6.95265L2.29663 4.53679H2.9555V13.6292H0Z" fill="#2E3235"/>
</g>
<defs>
<clipPath id="clip0_139_6001">
<rect width="86.8078" height="22" fill="white"/>
</clipPath>
</defs>
</svg>
