<svg width="140" height="53" viewBox="0 0 140 53" fill="none" xmlns="http://www.w3.org/2000/svg">
<g clip-path="url(#clip0_139_6186)">
<path d="M139.469 38.489H73.8302V44.4534H139.469V38.489Z" fill="#9B5EFF"/>
<path d="M80.1118 32.8569V0.0600586H94.3056C97.235 0.0600586 99.7718 0.543253 101.901 1.49454C104.03 2.44583 105.661 3.81992 106.823 5.5866C107.986 7.36838 108.56 9.48235 108.56 11.9587C108.56 14.4351 107.986 16.5038 106.823 18.2856C105.676 20.0673 104.03 21.4263 101.901 22.3776C99.7718 23.3289 97.2501 23.8121 94.3056 23.8121H84.3246L87.6919 20.3995V32.8569H80.0967H80.1118ZM87.707 21.2451L84.3397 17.6363H93.8979C96.2384 17.6363 97.99 17.138 99.1376 16.1414C100.3 15.1448 100.874 13.7556 100.874 11.9738C100.874 10.192 100.3 8.75756 99.1376 7.76097C97.99 6.76438 96.2384 6.26609 93.8979 6.26609H84.3397L87.707 2.65723V21.2602V21.2451Z" fill="#2E3234"/>
<path d="M121.47 26.7566H139.318V32.8418H113.935V0.0600586H138.714V6.14529H121.47V26.7566ZM120.911 13.2724H136.706V19.1764H120.911V13.2724Z" fill="#2E3234"/>
<path d="M53.4303 52.9999V32.0564L55.1668 36.6467L40.7313 12.6682H48.7946L59.8477 31.0749H55.2121L66.3104 12.6682H73.7546L59.3343 36.6467L61.0255 32.0564V52.9999H53.4303Z" fill="#2E3234"/>
<path d="M0.535645 32.8569V0.0600586H6.81717L20.7845 23.2081H17.4626L31.1732 0.0600586H37.4094L37.5 32.8569H30.3729L30.3276 10.9772H31.6413L20.6788 29.3839H17.2663L6.06218 10.9772H7.64766V32.8569H0.535645Z" fill="#2E3234"/>
</g>
<defs>
<clipPath id="clip0_139_6186">
<rect width="138.949" height="52.94" fill="white" transform="translate(0.535645 0.0600586)"/>
</clipPath>
</defs>
</svg>
